<svg width="1440" height="288" viewBox="0 0 1440 288" fill="none" xmlns="http://www.w3.org/2000/svg">
<path fill-rule="evenodd" clip-rule="evenodd" d="M0 144L60.0417 138C120.083 132 240.167 120 360.25 126C480.333 132 600.417 156 720.5 162C840.583 168 960.667 156 1080.75 126C1200.83 96 1320.92 48 1380.96 24L1441 0V288H1380.96C1320.92 288 1200.83 288 1080.75 288C960.667 288 840.583 288 720.5 288C600.417 288 480.333 288 360.25 288C240.167 288 120.083 288 60.0417 288H0V144Z" fill="#DCC9AC"/>
</svg>
