<svg width="42" height="42" viewBox="0 0 42 42" fill="none" xmlns="http://www.w3.org/2000/svg">
<path d="M12.2503 0.166504H29.7503C36.417 0.166504 41.8337 5.58317 41.8337 12.2498V29.7498C41.8337 32.9545 40.5606 36.028 38.2945 38.294C36.0285 40.5601 32.955 41.8332 29.7503 41.8332H12.2503C5.58366 41.8332 0.166992 36.4165 0.166992 29.7498V12.2498C0.166992 9.04514 1.44005 5.9717 3.70612 3.70563C5.97218 1.43957 9.04563 0.166504 12.2503 0.166504ZM11.8337 4.33317C9.84454 4.33317 7.93688 5.12335 6.53036 6.52987C5.12384 7.93639 4.33366 9.84405 4.33366 11.8332V30.1665C4.33366 34.3123 7.68783 37.6665 11.8337 37.6665H30.167C32.1561 37.6665 34.0638 36.8763 35.4703 35.4698C36.8768 34.0633 37.667 32.1556 37.667 30.1665V11.8332C37.667 7.68734 34.3128 4.33317 30.167 4.33317H11.8337ZM31.9378 7.45817C32.6285 7.45817 33.2909 7.73254 33.7793 8.22091C34.2676 8.70929 34.542 9.37167 34.542 10.0623C34.542 10.753 34.2676 11.4154 33.7793 11.9038C33.2909 12.3921 32.6285 12.6665 31.9378 12.6665C31.2472 12.6665 30.5848 12.3921 30.0964 11.9038C29.608 11.4154 29.3337 10.753 29.3337 10.0623C29.3337 9.37167 29.608 8.70929 30.0964 8.22091C30.5848 7.73254 31.2472 7.45817 31.9378 7.45817ZM21.0003 10.5832C23.763 10.5832 26.4125 11.6806 28.366 13.6341C30.3195 15.5876 31.417 18.2372 31.417 20.9998C31.417 23.7625 30.3195 26.412 28.366 28.3655C26.4125 30.319 23.763 31.4165 21.0003 31.4165C18.2377 31.4165 15.5881 30.319 13.6346 28.3655C11.6811 26.412 10.5837 23.7625 10.5837 20.9998C10.5837 18.2372 11.6811 15.5876 13.6346 13.6341C15.5881 11.6806 18.2377 10.5832 21.0003 10.5832ZM21.0003 14.7498C19.3427 14.7498 17.753 15.4083 16.5809 16.5804C15.4088 17.7525 14.7503 19.3422 14.7503 20.9998C14.7503 22.6574 15.4088 24.2472 16.5809 25.4193C17.753 26.5914 19.3427 27.2498 21.0003 27.2498C22.6579 27.2498 24.2476 26.5914 25.4197 25.4193C26.5918 24.2472 27.2503 22.6574 27.2503 20.9998C27.2503 19.3422 26.5918 17.7525 25.4197 16.5804C24.2476 15.4083 22.6579 14.7498 21.0003 14.7498Z" fill="#FAF0E1"/>
</svg>
