<svg width="40" height="38" viewBox="0 0 40 38" fill="none" xmlns="http://www.w3.org/2000/svg">
<path d="M8.33333 4.16875C8.33278 5.27382 7.89326 6.33341 7.11147 7.11442C6.32968 7.89543 5.26965 8.33389 4.16458 8.33333C3.05951 8.33278 1.99993 7.89326 1.21892 7.11147C0.437905 6.32968 -0.000552013 5.26965 5.21586e-07 4.16458C0.000553056 3.05951 0.44007 1.99993 1.22186 1.21892C2.00365 0.437905 3.06368 -0.000552013 4.16875 5.21586e-07C5.27382 0.000553056 6.33341 0.44007 7.11442 1.22186C7.89543 2.00365 8.33389 3.06368 8.33333 4.16875ZM8.45833 11.4187H0.125V37.5021H8.45833V11.4187ZM21.625 11.4187H13.3333V37.5021H21.5417V23.8146C21.5417 16.1896 31.4792 15.4813 31.4792 23.8146V37.5021H39.7083V20.9812C39.7083 8.12708 25 8.60625 21.5417 14.9187L21.625 11.4187Z" fill="#FAF0E1"/>
</svg>
