<svg width="1440" height="494" viewBox="0 0 1440 494" fill="none" xmlns="http://www.w3.org/2000/svg">
<path fill-rule="evenodd" clip-rule="evenodd" d="M0 62.5883L60 50.8754C120 39.162 240 15.7358 360 21.4565C414.407 24.1733 468.814 32.8817 523.222 41.5902C588.814 52.0893 654.407 62.5883 720 62.5883C797.397 62.5883 874.795 47.9701 952.192 33.352L952.201 33.3505C994.801 25.3046 1037.4 17.2587 1080 11.6498C1200 -3.87655 1320 -0.0630781 1380 1.84366L1440 3.7504V96.9999V97.9999V396V490.249L1380 492.156C1320 494.063 1200 497.876 1080 482.35C1037.4 476.741 994.801 468.695 952.201 460.649L952.192 460.648C874.795 446.03 797.397 431.412 720 431.412C654.407 431.412 588.814 441.911 523.222 452.41C468.814 461.118 414.407 469.827 360 472.543C240 478.264 120 454.838 60 443.124L0 431.412V396V97.9999V96.9999V62.5883Z" fill="#DCC9AC"/>
</svg>
