<svg width="1440" height="98" viewBox="0 0 1440 98" fill="none" xmlns="http://www.w3.org/2000/svg">
<path fill-rule="evenodd" clip-rule="evenodd" d="M0 35.4117L60 47.1247C120 58.8378 240 82.264 360 76.5437C480 70.5509 600 35.4117 720 35.4117C840 35.4117 960 70.5509 1080 86.35C1200 101.877 1320 98.0631 1380 96.1563L1440 94.2495V-7.62939e-06H1380C1320 -7.62939e-06 1200 -7.62939e-06 1080 -7.62939e-06C960 -7.62939e-06 840 -7.62939e-06 720 -7.62939e-06C600 -7.62939e-06 480 -7.62939e-06 360 -7.62939e-06C240 -7.62939e-06 120 -7.62939e-06 60 -7.62939e-06H0V35.4117Z" fill="#DCC9AC"/>
</svg>
