<svg width="34" height="38" viewBox="0 0 34 38" fill="none" xmlns="http://www.w3.org/2000/svg">
<path d="M26.5837 6.125C25.1595 4.49921 24.3747 2.41132 24.3753 0.25H17.9378V26.0833C17.8882 27.4813 17.298 28.8055 16.2915 29.777C15.285 30.7484 13.9408 31.2915 12.542 31.2917C9.58366 31.2917 7.12533 28.875 7.12533 25.875C7.12533 22.2917 10.5837 19.6042 14.1462 20.7083V14.125C6.95866 13.1667 0.666992 18.75 0.666992 25.875C0.666992 32.8125 6.41699 37.75 12.5212 37.75C19.0628 37.75 24.3753 32.4375 24.3753 25.875V12.7708C26.9857 14.6455 30.1198 15.6513 33.3337 15.6458V9.20833C33.3337 9.20833 29.417 9.39583 26.5837 6.125Z" fill="#784313"/>
</svg>
