<svg width="40" height="34" viewBox="0 0 40 34" fill="none" xmlns="http://www.w3.org/2000/svg">
<path d="M35.8884 8.47341C35.9138 8.84526 35.9138 9.2172 35.9138 9.58906C35.9138 20.9312 27.6651 34 12.5889 34C7.94417 34 3.62947 32.5921 0 30.1485C0.659924 30.2281 1.29438 30.2547 1.9797 30.2547C5.81213 30.2547 9.34011 28.9 12.1574 26.5891C8.55331 26.5094 5.53299 24.0391 4.49236 20.6391C5.00002 20.7187 5.5076 20.7718 6.04065 20.7718C6.77667 20.7718 7.51276 20.6655 8.198 20.4797C4.44166 19.6828 1.6243 16.2297 1.6243 12.0594V11.9531C2.71564 12.5907 3.98478 12.9891 5.32986 13.0421C3.12173 11.5015 1.67508 8.87184 1.67508 5.89682C1.67508 4.30309 2.0811 2.84216 2.79181 1.56715C6.82737 6.77339 12.8934 10.1733 19.6954 10.5453C19.5685 9.90777 19.4923 9.24378 19.4923 8.5797C19.4923 3.85152 23.1472 0 27.6903 0C30.0507 0 32.1827 1.03593 33.6802 2.70937C35.533 2.33752 37.3096 1.62029 38.8833 0.637505C38.2741 2.62974 36.9797 4.30318 35.2792 5.3656C36.929 5.17976 38.528 4.70152 40 4.03753C38.8834 5.73746 37.4874 7.25146 35.8884 8.47341Z" fill="#784313"/>
</svg>
